<svg width="139" height="29" viewBox="0 0 139 29" fill="none" xmlns="http://www.w3.org/2000/svg">
<path d="M49.8906 21C49.7865 20.7917 49.7018 20.4206 49.6367 19.8867C48.7969 20.7591 47.7943 21.1953 46.6289 21.1953C45.5872 21.1953 44.7311 20.9023 44.0605 20.3164C43.3965 19.724 43.0645 18.9753 43.0645 18.0703C43.0645 16.9701 43.4811 16.1172 44.3145 15.5117C45.1543 14.8997 46.3327 14.5938 47.8496 14.5938H49.6074V13.7637C49.6074 13.1322 49.4186 12.6309 49.041 12.2598C48.6634 11.8822 48.1068 11.6934 47.3711 11.6934C46.7266 11.6934 46.1862 11.8561 45.75 12.1816C45.3138 12.5072 45.0957 12.901 45.0957 13.3633H43.2793C43.2793 12.8359 43.4648 12.3281 43.8359 11.8398C44.2135 11.3451 44.7214 10.9544 45.3594 10.668C46.0039 10.3815 46.7103 10.2383 47.4785 10.2383C48.696 10.2383 49.6497 10.5443 50.3398 11.1562C51.0299 11.7617 51.388 12.5983 51.4141 13.666V18.5293C51.4141 19.4993 51.5378 20.2708 51.7852 20.8438V21H49.8906ZM46.8926 19.623C47.459 19.623 47.9961 19.4766 48.5039 19.1836C49.0117 18.8906 49.3796 18.5098 49.6074 18.041V15.873H48.1914C45.9779 15.873 44.8711 16.5208 44.8711 17.8164C44.8711 18.3828 45.0599 18.8255 45.4375 19.1445C45.8151 19.4635 46.3001 19.623 46.8926 19.623ZM57.5762 18.5488L60.1934 10.4336H62.0391L58.25 21H56.873L53.0449 10.4336H54.8906L57.5762 18.5488ZM65.7402 21H63.9336V10.4336H65.7402V21ZM63.7871 7.63086C63.7871 7.33789 63.875 7.09049 64.0508 6.88867C64.2331 6.68685 64.5 6.58594 64.8516 6.58594C65.2031 6.58594 65.4701 6.68685 65.6523 6.88867C65.8346 7.09049 65.9258 7.33789 65.9258 7.63086C65.9258 7.92383 65.8346 8.16797 65.6523 8.36328C65.4701 8.55859 65.2031 8.65625 64.8516 8.65625C64.5 8.65625 64.2331 8.55859 64.0508 8.36328C63.875 8.16797 63.7871 7.92383 63.7871 7.63086ZM75.1641 21C75.0599 20.7917 74.9753 20.4206 74.9102 19.8867C74.0703 20.7591 73.0677 21.1953 71.9023 21.1953C70.8607 21.1953 70.0046 20.9023 69.334 20.3164C68.6699 19.724 68.3379 18.9753 68.3379 18.0703C68.3379 16.9701 68.7546 16.1172 69.5879 15.5117C70.4277 14.8997 71.6061 14.5938 73.123 14.5938H74.8809V13.7637C74.8809 13.1322 74.6921 12.6309 74.3145 12.2598C73.9368 11.8822 73.3802 11.6934 72.6445 11.6934C72 11.6934 71.4596 11.8561 71.0234 12.1816C70.5872 12.5072 70.3691 12.901 70.3691 13.3633H68.5527C68.5527 12.8359 68.7383 12.3281 69.1094 11.8398C69.487 11.3451 69.9948 10.9544 70.6328 10.668C71.2773 10.3815 71.9837 10.2383 72.752 10.2383C73.9694 10.2383 74.9232 10.5443 75.6133 11.1562C76.3034 11.7617 76.6615 12.5983 76.6875 13.666V18.5293C76.6875 19.4993 76.8112 20.2708 77.0586 20.8438V21H75.1641ZM72.166 19.623C72.7324 19.623 73.2695 19.4766 73.7773 19.1836C74.2852 18.8906 74.653 18.5098 74.8809 18.041V15.873H73.4648C71.2513 15.873 70.1445 16.5208 70.1445 17.8164C70.1445 18.3828 70.3333 18.8255 70.7109 19.1445C71.0885 19.4635 71.5736 19.623 72.166 19.623ZM85.6719 18.1973C85.6719 17.709 85.4863 17.3314 85.1152 17.0645C84.7507 16.791 84.1094 16.5566 83.1914 16.3613C82.2799 16.166 81.554 15.9316 81.0137 15.6582C80.4798 15.3848 80.0827 15.0592 79.8223 14.6816C79.5684 14.304 79.4414 13.8548 79.4414 13.334C79.4414 12.4681 79.806 11.7357 80.5352 11.1367C81.2708 10.5378 82.2083 10.2383 83.3477 10.2383C84.5456 10.2383 85.5156 10.5475 86.2578 11.166C87.0065 11.7845 87.3809 12.5755 87.3809 13.5391H85.5645C85.5645 13.0443 85.3529 12.6178 84.9297 12.2598C84.513 11.9017 83.9857 11.7227 83.3477 11.7227C82.6901 11.7227 82.1758 11.8659 81.8047 12.1523C81.4336 12.4388 81.248 12.8132 81.248 13.2754C81.248 13.7116 81.4206 14.0404 81.7656 14.2617C82.1107 14.4831 82.7324 14.6947 83.6309 14.8965C84.5358 15.0983 85.2682 15.3392 85.8281 15.6191C86.388 15.8991 86.8014 16.2376 87.0684 16.6348C87.3418 17.0254 87.4785 17.5039 87.4785 18.0703C87.4785 19.0143 87.1009 19.7728 86.3457 20.3457C85.5905 20.9121 84.6107 21.1953 83.4062 21.1953C82.5599 21.1953 81.8112 21.0456 81.1602 20.7461C80.5091 20.4466 79.998 20.0299 79.627 19.4961C79.2624 18.9557 79.0801 18.373 79.0801 17.748H80.8867C80.9193 18.3535 81.1602 18.8353 81.6094 19.1934C82.0651 19.5449 82.6641 19.7207 83.4062 19.7207C84.0898 19.7207 84.6367 19.584 85.0469 19.3105C85.4635 19.0306 85.6719 18.6595 85.6719 18.1973ZM96.3555 21C96.2513 20.7917 96.1667 20.4206 96.1016 19.8867C95.2617 20.7591 94.2591 21.1953 93.0938 21.1953C92.0521 21.1953 91.196 20.9023 90.5254 20.3164C89.8613 19.724 89.5293 18.9753 89.5293 18.0703C89.5293 16.9701 89.946 16.1172 90.7793 15.5117C91.6191 14.8997 92.7975 14.5938 94.3145 14.5938H96.0723V13.7637C96.0723 13.1322 95.8835 12.6309 95.5059 12.2598C95.1283 11.8822 94.5716 11.6934 93.8359 11.6934C93.1914 11.6934 92.651 11.8561 92.2148 12.1816C91.7786 12.5072 91.5605 12.901 91.5605 13.3633H89.7441C89.7441 12.8359 89.9297 12.3281 90.3008 11.8398C90.6784 11.3451 91.1862 10.9544 91.8242 10.668C92.4688 10.3815 93.1751 10.2383 93.9434 10.2383C95.1608 10.2383 96.1146 10.5443 96.8047 11.1562C97.4948 11.7617 97.8529 12.5983 97.8789 13.666V18.5293C97.8789 19.4993 98.0026 20.2708 98.25 20.8438V21H96.3555ZM93.3574 19.623C93.9238 19.623 94.4609 19.4766 94.9688 19.1836C95.4766 18.8906 95.8444 18.5098 96.0723 18.041V15.873H94.6562C92.4427 15.873 91.3359 16.5208 91.3359 17.8164C91.3359 18.3828 91.5247 18.8255 91.9023 19.1445C92.2799 19.4635 92.765 19.623 93.3574 19.623ZM102.674 21H100.867V6H102.674V21ZM109.959 21.1953C108.527 21.1953 107.361 20.7266 106.463 19.7891C105.564 18.8451 105.115 17.5853 105.115 16.0098V15.6777C105.115 14.6296 105.314 13.6953 105.711 12.875C106.115 12.0482 106.674 11.4036 107.391 10.9414C108.113 10.4727 108.895 10.2383 109.734 10.2383C111.108 10.2383 112.176 10.6908 112.938 11.5957C113.699 12.5007 114.08 13.7962 114.08 15.4824V16.2344H106.922C106.948 17.276 107.251 18.1191 107.83 18.7637C108.416 19.4017 109.158 19.7207 110.057 19.7207C110.695 19.7207 111.235 19.5905 111.678 19.3301C112.12 19.0697 112.508 18.7246 112.84 18.2949L113.943 19.1543C113.058 20.515 111.73 21.1953 109.959 21.1953ZM109.734 11.7227C109.005 11.7227 108.393 11.9896 107.898 12.5234C107.404 13.0508 107.098 13.793 106.98 14.75H112.273V14.6133C112.221 13.6953 111.974 12.9857 111.531 12.4844C111.089 11.9766 110.49 11.7227 109.734 11.7227ZM122.332 18.1973C122.332 17.709 122.146 17.3314 121.775 17.0645C121.411 16.791 120.77 16.5566 119.852 16.3613C118.94 16.166 118.214 15.9316 117.674 15.6582C117.14 15.3848 116.743 15.0592 116.482 14.6816C116.229 14.304 116.102 13.8548 116.102 13.334C116.102 12.4681 116.466 11.7357 117.195 11.1367C117.931 10.5378 118.868 10.2383 120.008 10.2383C121.206 10.2383 122.176 10.5475 122.918 11.166C123.667 11.7845 124.041 12.5755 124.041 13.5391H122.225C122.225 13.0443 122.013 12.6178 121.59 12.2598C121.173 11.9017 120.646 11.7227 120.008 11.7227C119.35 11.7227 118.836 11.8659 118.465 12.1523C118.094 12.4388 117.908 12.8132 117.908 13.2754C117.908 13.7116 118.081 14.0404 118.426 14.2617C118.771 14.4831 119.393 14.6947 120.291 14.8965C121.196 15.0983 121.928 15.3392 122.488 15.6191C123.048 15.8991 123.462 16.2376 123.729 16.6348C124.002 17.0254 124.139 17.5039 124.139 18.0703C124.139 19.0143 123.761 19.7728 123.006 20.3457C122.251 20.9121 121.271 21.1953 120.066 21.1953C119.22 21.1953 118.471 21.0456 117.82 20.7461C117.169 20.4466 116.658 20.0299 116.287 19.4961C115.923 18.9557 115.74 18.373 115.74 17.748H117.547C117.579 18.3535 117.82 18.8353 118.27 19.1934C118.725 19.5449 119.324 19.7207 120.066 19.7207C120.75 19.7207 121.297 19.584 121.707 19.3105C122.124 19.0306 122.332 18.6595 122.332 18.1973Z" fill="white"/>
<path fill-rule="evenodd" clip-rule="evenodd" d="M29.999 20L30 24.252C30 27.174 28.11 29 24.58 29H4.916C1.89 29 0.001 27.174 0.001 24.252L0 20H0.933C3.136 20 4.995 18.445 4.995 16.418V12.582C4.995 10.555 3.136 9 0.933 9H0V4.748C0 1.826 1.89 0 4.915 0H24.58C27.606 0 30 1.826 30 4.748V9H29.067C26.865 9 25.007 10.555 25.007 12.582V16.152C25.007 18.179 26.866 20 29.067 20H30H29.999ZM22.989 12.563C22.989 8.918 19.852 6 16.029 6H13.972C10.149 6 7.012 8.92 7.012 12.563V19.353C7.012 22.995 10.149 26 13.972 26H16.029C19.852 26 22.989 22.995 22.989 19.352V12.563Z" fill="white"/>
<path fill-rule="evenodd" clip-rule="evenodd" d="M16.143 25H13.846C10.68 25 7.997 22.405 7.997 19.365V12.55C7.997 9.508 10.679 7 13.847 7H16.142C19.309 7 21.992 9.508 21.992 12.55V19.365C21.994 22.405 19.31 25 16.142 25H16.143ZM19.949 12.43C19.949 10.49 18.181 9 15.978 9H13.96C11.758 9 9.99001 10.49 9.99001 12.43V16.57C9.99001 18.51 11.758 20 13.96 20H15.978C18.181 20 19.949 18.51 19.949 16.57V12.43Z" fill="white"/>
<path fill-rule="evenodd" clip-rule="evenodd" d="M14.51 19H14.4C12.37 19 10.99 17.926 10.99 15.828V14.54C10.99 14.54 10.983 14 11.473 14C11.963 14 11.963 14.54 11.963 14.54V15.828C11.963 17.388 12.908 18.023 14.4 18.023H14.51C14.51 18.023 14.989 18.046 14.989 18.521C14.987 18.995 14.509 19 14.509 19H14.51Z" fill="white"/>
</svg>
